<svg xmlns="http://www.w3.org/2000/svg" viewBox="0 0 242.12 77.09"><defs><style>.cls-1{fill:#cc2027;}</style></defs><g id="Layer_2" data-name="Layer 2"><g id="Layer_1-2" data-name="Layer 1"><path d="M80.17,37.81q-5.55-5.28-17.07-7.1l-7.37-1.18Q51,28.8,49,27.1t-2.09-5.5a6.11,6.11,0,0,1,2.68-5.28c1.77-1.26,4.48-1.9,8.11-1.9a20.8,20.8,0,0,1,9.56,2,21.8,21.8,0,0,1,6.45,5l10.79-10.9a30,30,0,0,0-11-7.81A38.34,38.34,0,0,0,58.61,0a38.53,38.53,0,0,0-11.8,1.66,25.6,25.6,0,0,0-8.75,4.64,20.34,20.34,0,0,0-5.5,7.17,21.7,21.7,0,0,0-1.92,9.19q0,9.41,5.5,15.07T53.48,44.9l7.37,1q5.24.73,6.94,2.8a7.75,7.75,0,0,1,1.71,5.13,8.05,8.05,0,0,1-2.88,6.46c-1.92,1.62-4.88,2.42-8.86,2.42a24.07,24.07,0,0,1-18.69-8.46L28.39,65A38.15,38.15,0,0,0,40,73.72q6.83,3.38,16.65,3.37a40.27,40.27,0,0,0,12.38-1.76,26,26,0,0,0,9.13-5,20.94,20.94,0,0,0,5.6-7.7,24.56,24.56,0,0,0,1.93-9.83Q85.73,43.11,80.17,37.81Z"/><path d="M145.72,51.57a19.84,19.84,0,0,1-5.28,7.85q-3.57,3.26-9.56,3.25A14.93,14.93,0,0,1,119.41,58c-2.89-3.1-4.33-7.59-4.33-13.5v-12q0-8.87,4.33-13.51a14.93,14.93,0,0,1,11.47-4.64q6.09,0,9.24,2.83a16.51,16.51,0,0,1,4.64,7.53l14-7.27Q154.69,8.45,148,4.22T130.88,0a34.86,34.86,0,0,0-13.66,2.56,27.64,27.64,0,0,0-10.36,7.53,34.86,34.86,0,0,0-6.62,12.28,54.73,54.73,0,0,0-2.34,16.7,53.08,53.08,0,0,0,2.34,16.6,33,33,0,0,0,6.62,11.86,27.16,27.16,0,0,0,10.36,7.15,37,37,0,0,0,13.66,2.4q10.37,0,17.14-4.65A33,33,0,0,0,159,59.26Z"/><path d="M224.83,0l-18,34.91h-.21L188.32,0H171.13V77.09H186.4V24.89h.32l5.65,11.74,14.21,26.26,14.51-26.37,5.45-10.89h.32V77.09h15.26V0Z"/><rect y="0.01" width="16.23" height="77.08"/><rect class="cls-1" x="226.86" y="61.83" width="15.26" height="15.26"/><rect class="cls-1" width="16.23" height="16.23"/></g></g></svg>